<svg version="1.2" baseProfile="tiny-ps" xmlns="http://www.w3.org/2000/svg" viewBox="0 0 71 102" width="71" height="102">
	<title>freepik--speech-bubble--inject-42</title>
	<style>
		tspan { white-space:pre }
		.shp0 { fill: #ff775e } 
		.shp1 { opacity: 0.2;fill: #000000 } 
		.shp2 { opacity: 0.4;fill: #ffffff } 
		.shp3 { opacity: 0.102;fill: #000000 } 
		.shp4 { fill: #455a64 } 
	</style>
	<g id="freepik--speech-bubble--inject-42">
		<g id="freepik--speech-bubble--inject-42">
			<g id="freepik--speech-bubble--inject-42">
				<path id="Layer" class="shp0" d="M62.33 0.71L12.12 29.71C11.93 29.83 11.76 29.98 11.6 30.14C11.45 30.3 11.31 30.48 11.2 30.67C11.09 30.87 11 31.07 10.93 31.29C10.87 31.5 10.83 31.73 10.82 31.95L10.82 96.15C10.83 96.37 10.87 96.59 10.93 96.81C11 97.02 11.09 97.23 11.2 97.42C11.31 97.62 11.45 97.79 11.6 97.96C11.76 98.12 11.93 98.26 12.12 98.38L16.76 100.98C16.96 101.08 17.17 101.16 17.39 101.21C17.61 101.26 17.83 101.29 18.05 101.29C18.28 101.29 18.5 101.26 18.72 101.21C18.94 101.16 19.15 101.08 19.35 100.98L69.57 71.98C69.76 71.86 69.93 71.71 70.08 71.55C70.23 71.39 70.37 71.21 70.48 71.01C70.59 70.82 70.68 70.61 70.74 70.4C70.81 70.18 70.85 69.96 70.86 69.74L70.86 5.52C70.85 5.3 70.81 5.08 70.75 4.86C70.68 4.65 70.59 4.44 70.48 4.25C70.37 4.06 70.23 3.88 70.08 3.72C69.92 3.56 69.75 3.42 69.56 3.3L64.93 0.7C64.73 0.6 64.52 0.52 64.3 0.47C64.08 0.42 63.85 0.4 63.63 0.4C63.4 0.4 63.18 0.43 62.96 0.48C62.74 0.53 62.53 0.61 62.33 0.71L62.33 0.71Z" />
				<path id="Layer" class="shp0" d="M18.06 100.22L18.06 36C18.07 35.78 18.11 35.56 18.17 35.34C18.24 35.13 18.33 34.92 18.44 34.73C18.55 34.53 18.68 34.35 18.84 34.19C18.99 34.03 19.16 33.88 19.35 33.76L69.57 4.76C70.28 4.35 70.86 4.68 70.86 5.5L70.86 69.71C70.85 69.93 70.81 70.15 70.74 70.37C70.68 70.58 70.59 70.79 70.48 70.98C70.37 71.18 70.23 71.36 70.08 71.52C69.93 71.68 69.76 71.83 69.57 71.95L19.35 100.95C18.63 101.38 18.06 101 18.06 100.22Z" />
				<path id="Layer" class="shp1" d="M19.35 101C19.15 101.1 18.94 101.17 18.72 101.22C18.5 101.27 18.27 101.3 18.05 101.3C17.83 101.3 17.6 101.27 17.38 101.22C17.16 101.17 16.95 101.1 16.75 101L12.12 98.4C11.93 98.28 11.76 98.14 11.61 97.98C11.45 97.82 11.32 97.64 11.2 97.45C11.09 97.25 11 97.05 10.94 96.84C10.87 96.62 10.83 96.4 10.82 96.18L10.82 32C10.82 31.88 10.84 31.77 10.86 31.65C10.88 31.54 10.9 31.42 10.94 31.31C10.97 31.2 11.01 31.09 11.06 30.99C11.11 30.88 11.17 30.78 11.23 30.68L18.44 34.79C18.38 34.89 18.33 34.98 18.28 35.09C18.24 35.19 18.2 35.29 18.17 35.4C18.13 35.51 18.11 35.62 18.09 35.73C18.07 35.84 18.06 35.95 18.06 36.06L18.06 100.26C18.06 101 18.59 101.41 19.35 101Z" />
				<path id="Layer" class="shp2" d="M70.84 5.29C70.74 4.64 70.21 4.41 69.57 4.78L19.35 33.78C19.25 33.84 19.16 33.91 19.08 33.98C18.99 34.06 18.91 34.14 18.83 34.22C18.75 34.31 18.68 34.39 18.62 34.49C18.55 34.58 18.49 34.68 18.44 34.78L11.23 30.67C11.28 30.58 11.34 30.49 11.41 30.4C11.47 30.31 11.54 30.23 11.62 30.15C11.69 30.08 11.77 30 11.86 29.94C11.94 29.87 12.03 29.81 12.12 29.75L62.34 0.75C62.54 0.65 62.75 0.57 62.97 0.52C63.19 0.47 63.41 0.44 63.63 0.44C63.86 0.44 64.08 0.47 64.3 0.52C64.52 0.57 64.73 0.65 64.93 0.75L69.56 3.34C69.73 3.45 69.89 3.57 70.03 3.71C70.17 3.86 70.3 4.01 70.41 4.18C70.52 4.35 70.61 4.52 70.68 4.71C70.76 4.9 70.81 5.09 70.84 5.29L70.84 5.29Z" />
				<path id="Layer" class="shp0" d="M10.82 51.3L0.42 61.88C0.3 62 0.21 62.15 0.15 62.31C0.09 62.47 0.07 62.64 0.09 62.81C0.11 62.98 0.16 63.14 0.25 63.29C0.34 63.43 0.47 63.56 0.61 63.65C0.83 63.79 7.81 67.8 7.81 67.8L18.06 55.47L10.82 51.3Z" />
				<path id="Layer" class="shp3" d="M10.82 51.3L0.42 61.88C0.3 62 0.21 62.15 0.15 62.31C0.09 62.47 0.07 62.64 0.09 62.81C0.11 62.98 0.16 63.14 0.25 63.29C0.34 63.43 0.47 63.56 0.61 63.65C0.83 63.79 7.81 67.8 7.81 67.8L18.06 55.47L10.82 51.3Z" />
				<path id="Layer" class="shp0" d="M18.06 55.47L7.65 66.05C7.48 66.22 7.37 66.44 7.34 66.68C7.3 66.92 7.34 67.17 7.45 67.38C7.56 67.6 7.74 67.77 7.95 67.88C8.17 67.99 8.41 68.03 8.65 67.99L18.08 66.63C19.07 66.63 19.07 55.47 18.06 55.47Z" />
			</g>
			<g id="freepik--dead-emoji--inject-42">
				<path id="Layer" class="shp4" d="M36 53C35.94 53 35.87 52.99 35.81 52.98C35.75 52.97 35.69 52.95 35.63 52.93C35.57 52.9 35.51 52.87 35.46 52.84C35.41 52.8 35.36 52.76 35.31 52.72L27.85 45.54C27.64 45.36 27.5 45.1 27.49 44.83C27.47 44.55 27.57 44.28 27.76 44.08C27.96 43.88 28.22 43.76 28.5 43.77C28.78 43.77 29.04 43.89 29.23 44.1L36.7 51.28C36.79 51.37 36.87 51.48 36.92 51.61C36.97 51.73 37 51.86 37 51.99C37 52.12 36.97 52.25 36.92 52.37C36.87 52.5 36.79 52.61 36.7 52.7C36.65 52.75 36.6 52.79 36.55 52.83C36.5 52.86 36.44 52.89 36.38 52.92C36.32 52.94 36.26 52.96 36.19 52.98C36.13 52.99 36.07 53 36 53Z" />
				<path id="Layer" class="shp4" d="M28.54 57.34C28.5 57.34 28.47 57.34 28.43 57.33C28.39 57.33 28.36 57.32 28.32 57.32C28.28 57.31 28.25 57.3 28.21 57.29C28.18 57.28 28.14 57.26 28.11 57.25C27.99 57.19 27.89 57.11 27.8 57.02C27.71 56.92 27.64 56.81 27.6 56.68C27.56 56.56 27.54 56.43 27.54 56.3C27.55 56.17 27.58 56.04 27.64 55.92L35.1 40.12C35.16 40 35.23 39.89 35.33 39.81C35.43 39.72 35.54 39.65 35.67 39.6C35.79 39.56 35.92 39.54 36.05 39.55C36.18 39.55 36.31 39.58 36.43 39.64C36.55 39.7 36.66 39.77 36.74 39.87C36.83 39.97 36.9 40.08 36.95 40.21C36.99 40.33 37.01 40.46 37 40.59C37 40.72 36.97 40.85 36.91 40.97L29.45 56.77C29.41 56.86 29.36 56.93 29.29 57.01C29.23 57.08 29.16 57.14 29.08 57.19C29 57.24 28.91 57.28 28.82 57.3C28.73 57.33 28.63 57.34 28.54 57.34Z" />
				<path id="Layer" class="shp4" d="M60.38 39C60.32 39 60.25 38.99 60.19 38.98C60.12 38.97 60.06 38.95 60 38.93C59.94 38.9 59.89 38.87 59.83 38.84C59.78 38.8 59.73 38.76 59.68 38.72L52.22 31.54C52.13 31.45 52.05 31.34 52 31.22C51.95 31.1 51.93 30.97 51.93 30.83C51.93 30.7 51.95 30.57 52 30.45C52.05 30.33 52.13 30.22 52.22 30.13C52.31 30.04 52.42 29.96 52.55 29.91C52.67 29.86 52.8 29.83 52.93 29.83C53.06 29.83 53.19 29.86 53.31 29.91C53.44 29.96 53.55 30.04 53.64 30.13L61.1 37.31C61.24 37.45 61.34 37.63 61.38 37.82C61.43 38.02 61.41 38.22 61.33 38.4C61.26 38.59 61.13 38.75 60.97 38.86C60.8 38.97 60.61 39.03 60.41 39.03L60.38 39Z" />
				<path id="Layer" class="shp4" d="M52.91 43.27C52.87 43.27 52.84 43.27 52.8 43.26C52.77 43.26 52.73 43.26 52.7 43.25C52.66 43.24 52.62 43.23 52.59 43.22C52.56 43.21 52.52 43.19 52.49 43.18C52.37 43.12 52.26 43.05 52.17 42.95C52.08 42.85 52.01 42.73 51.97 42.61C51.93 42.49 51.91 42.35 51.91 42.22C51.92 42.09 51.95 41.96 52.01 41.84L59.47 26.05C59.58 25.8 59.78 25.61 60.03 25.52C60.29 25.43 60.57 25.44 60.81 25.55C61.05 25.67 61.24 25.87 61.33 26.13C61.42 26.38 61.4 26.66 61.28 26.9L53.82 42.7C53.78 42.79 53.73 42.86 53.66 42.94C53.6 43.01 53.53 43.07 53.45 43.12C53.37 43.17 53.28 43.21 53.19 43.23C53.1 43.26 53 43.27 52.91 43.27Z" />
				<path id="Layer" class="shp4" d="M28.21 75.24C28.12 75.24 28.03 75.23 27.95 75.21C27.87 75.18 27.78 75.15 27.71 75.11C27.63 75.06 27.56 75.01 27.5 74.95C27.44 74.89 27.38 74.82 27.34 74.74C27.28 74.63 27.23 74.5 27.22 74.37C27.2 74.24 27.21 74.11 27.24 73.98C27.28 73.86 27.34 73.74 27.42 73.64C27.5 73.53 27.6 73.45 27.71 73.38L60.21 54.61C60.44 54.48 60.71 54.45 60.97 54.51C61.23 54.58 61.44 54.75 61.58 54.98C61.71 55.21 61.74 55.48 61.68 55.74C61.61 56 61.44 56.21 61.21 56.35L28.71 75.11C28.67 75.13 28.63 75.15 28.59 75.17C28.55 75.18 28.51 75.2 28.47 75.21C28.43 75.22 28.38 75.23 28.34 75.23C28.3 75.24 28.25 75.24 28.21 75.24Z" />
				<path id="Layer" class="shp4" d="M50.86 75.77C50.72 75.77 50.59 75.76 50.45 75.74C50.32 75.73 50.18 75.7 50.05 75.67C49.92 75.63 49.79 75.59 49.67 75.54C49.54 75.49 49.42 75.43 49.3 75.36C49 75.15 48.73 74.91 48.49 74.63C48.26 74.35 48.06 74.04 47.9 73.71C47.75 73.38 47.64 73.04 47.57 72.68C47.51 72.32 47.49 71.95 47.52 71.59L47.52 62.52C47.52 62.25 47.63 62 47.81 61.81C48 61.63 48.25 61.52 48.52 61.52C48.79 61.52 49.04 61.63 49.23 61.81C49.41 62 49.52 62.25 49.52 62.52L49.52 71.59C49.5 71.78 49.5 71.96 49.52 72.15C49.55 72.33 49.59 72.51 49.66 72.69C49.73 72.86 49.82 73.02 49.93 73.18C50.03 73.33 50.16 73.47 50.3 73.59C50.45 73.65 50.6 73.69 50.75 73.7C50.91 73.72 51.07 73.72 51.22 73.7C51.38 73.68 51.53 73.64 51.67 73.57C51.82 73.51 51.96 73.44 52.08 73.34C52.6 72.97 53.08 72.55 53.51 72.07C53.94 71.6 54.31 71.08 54.62 70.52C54.92 69.96 55.17 69.36 55.34 68.75C55.51 68.13 55.61 67.5 55.64 66.86L55.64 57.79C55.64 57.52 55.75 57.27 55.93 57.08C56.12 56.9 56.37 56.79 56.64 56.79C56.91 56.79 57.16 56.9 57.35 57.08C57.53 57.27 57.64 57.52 57.64 57.79L57.64 66.86C57.61 67.67 57.49 68.48 57.28 69.27C57.06 70.05 56.75 70.81 56.35 71.52C55.96 72.23 55.48 72.89 54.93 73.49C54.38 74.09 53.76 74.62 53.08 75.07C52.91 75.18 52.74 75.27 52.56 75.35C52.39 75.44 52.2 75.51 52.02 75.57C51.83 75.63 51.64 75.67 51.44 75.71C51.25 75.74 51.06 75.76 50.86 75.77L50.86 75.77Z" />
				<path id="Layer" class="shp4" d="M52.58 69.93C52.45 69.93 52.32 69.9 52.2 69.85C52.08 69.8 51.97 69.73 51.87 69.64C51.78 69.54 51.71 69.43 51.66 69.31C51.61 69.19 51.58 69.06 51.58 68.93L51.58 60.17C51.58 59.9 51.69 59.65 51.87 59.46C52.06 59.28 52.31 59.17 52.58 59.17C52.85 59.17 53.1 59.28 53.29 59.46C53.47 59.65 53.58 59.9 53.58 60.17L53.58 68.93C53.58 69.06 53.55 69.19 53.5 69.31C53.45 69.43 53.38 69.54 53.29 69.64C53.19 69.73 53.08 69.8 52.96 69.85C52.84 69.9 52.71 69.93 52.58 69.93Z" />
			</g>
		</g>
	</g>
</svg>