<?xml version="1.0" encoding="iso-8859-1"?>
<!-- Generator: Adobe Illustrator 19.0.0, SVG Export Plug-In . SVG Version: 6.00 Build 0)  -->
<svg version="1.1" id="Capa_1" xmlns="http://www.w3.org/2000/svg" xmlns:xlink="http://www.w3.org/1999/xlink" x="0px" y="0px"
	 viewBox="0 0 512 512" style="enable-background:new 0 0 512 512;" xml:space="preserve">
<g>
	<g>
		<path d="M490,188.663V98.029c0-21.505-17.495-39-39-39h-70.848C358.563,59.029,341,76.593,341,98.181v8.848
			c0,5.523,4.477,10,10,10h78c1.654,0,3,1.346,3,3v67.013H32.042C14.374,187.042,0,201.416,0,219.084
			c0,14.161,9.237,26.198,22,30.421v86.725c0,47.471,35.444,86.815,81.257,92.97l-6.7,6.7c-3.905,3.905-3.905,10.237,0,14.142
			c1.953,1.953,4.512,2.929,7.071,2.929c2.559,0,5.119-0.977,7.071-2.929l19.999-19.999h250.603l19.999,19.999
			c1.953,1.953,4.512,2.929,7.071,2.929c2.559,0,5.119-0.977,7.071-2.929c3.905-3.905,3.906-10.237,0-14.142l-6.7-6.7
			C454.556,423.045,490,383.701,490,336.23v-86.725c12.763-4.223,22-16.26,22-30.421S502.763,192.887,490,188.663z M429,97.029
			h-67.966c0.598-10.026,8.944-18,19.118-18H451c10.477,0,19,8.523,19,19v89h-18v-67C452,107.347,441.682,97.029,429,97.029z
			 M74,207.042h172v130.772l-1.41-0.731c-12.905-6.692-28.316-6.692-41.244,0.01l-0.07,0.037c-7.11,3.685-15.593,3.674-22.693-0.034
			c-6.446-3.367-13.522-5.05-20.595-5.05c-7.02,0-14.037,1.658-20.429,4.973c-0.01,0.005-0.105,0.054-0.116,0.06
			c-7.129,3.697-15.64,3.703-22.774,0.018c-0.014-0.007-0.027-0.014-0.041-0.021c-12.906-6.693-28.316-6.693-41.224-0.001
			L74,337.802V207.042z M20,219.083c0-6.639,5.402-12.041,12.042-12.041H54v24.083H32.042C25.402,231.125,20,225.723,20,219.083z
			 M469.998,336.23c0.002,40.7-33.11,73.812-73.811,73.812H115.812C75.112,410.042,42,376.93,42,336.23v-85.104h12v102.213
			c0,3.66,1.943,7.116,5.07,9.018c3.127,1.902,7.088,2.038,10.343,0.353l15.198-7.881c7.13-3.697,15.64-3.703,22.773-0.019
			c0.014,0.007,0.028,0.015,0.042,0.022c12.907,6.692,28.317,6.692,41.193,0.016c0.01-0.005,0.105-0.054,0.116-0.06
			c7.078-3.669,15.521-3.656,22.588,0.034c12.875,6.725,28.261,6.748,41.179,0.051l0.07-0.036c7.142-3.703,15.669-3.702,22.81,0
			l15.2,7.882c1.517,0.788,3.188,1.178,4.857,1.178c1.909,0,3.816-0.511,5.485-1.525c3.13-1.901,5.074-5.358,5.074-9.021V251.126
			h204V336.23z M479.958,231.126H266v-24.083h213.958c6.64,0,12.042,5.402,12.042,12.042
			C492,225.724,486.598,231.126,479.958,231.126z"/>
	</g>
</g>
<g>
	<g>
		<path d="M310.615,369.223h-0.553c-5.523,0-10,4.477-10,10s4.477,10,10,10h0.553c5.523,0,10-4.477,10-10
			S316.138,369.223,310.615,369.223z"/>
	</g>
</g>
<g>
	<g>
		<path d="M437.086,301.59c-5.523,0-10,4.477-10,10c0,31.779-25.854,57.633-57.633,57.633H341.5c-5.523,0-10,4.477-10,10
			s4.477,10,10,10h27.953c42.807,0,77.633-34.826,77.633-77.633C447.086,306.067,442.609,301.59,437.086,301.59z"/>
	</g>
</g>
<g>
	<g>
		<path d="M344.057,153.671c-5.222-1.798-10.912,0.982-12.708,6.206l-1.625,4.728c-1.795,5.223,0.984,10.912,6.207,12.708
			c1.077,0.371,2.173,0.546,3.251,0.546c4.151,0,8.031-2.606,9.456-6.752l1.625-4.728
			C352.059,161.156,349.281,155.467,344.057,153.671z"/>
	</g>
</g>
<g>
	<g>
		<path d="M355.437,120.572c-5.224-1.796-10.913,0.983-12.708,6.206l-1.625,4.729c-1.795,5.223,0.983,10.912,6.206,12.708
			c1.077,0.37,2.173,0.546,3.251,0.546c4.152,0,8.031-2.606,9.457-6.752l1.625-4.729
			C363.438,128.057,360.66,122.367,355.437,120.572z"/>
	</g>
</g>
<g>
	<g>
		<path d="M374.5,155.243c-5.523,0-10,4.477-10,10v5c0,5.523,4.477,10,10,10s10-4.477,10-10v-5
			C384.5,159.72,380.023,155.243,374.5,155.243z"/>
	</g>
</g>
<g>
	<g>
		<path d="M374.5,120.243c-5.523,0-10,4.477-10,10v5c0,5.523,4.477,10,10,10s10-4.477,10-10v-5
			C384.5,124.72,380.023,120.243,374.5,120.243z"/>
	</g>
</g>
<g>
	<g>
		<path d="M419.441,164.605l-1.625-4.728c-1.796-5.223-7.486-8.004-12.708-6.206c-5.223,1.796-8.001,7.485-6.205,12.708l1.625,4.728
			c1.425,4.146,5.304,6.752,9.456,6.752c1.078,0,2.175-0.176,3.251-0.546C418.458,175.518,421.236,169.828,419.441,164.605z"/>
	</g>
</g>
<g>
	<g>
		<path d="M408.062,131.507l-1.625-4.729c-1.796-5.223-7.483-8-12.708-6.206c-5.223,1.795-8.001,7.485-6.206,12.708l1.625,4.729
			c1.426,4.146,5.304,6.752,9.457,6.752c1.078,0,2.175-0.176,3.251-0.546C407.079,142.42,409.857,136.73,408.062,131.507z"/>
	</g>
</g>
<g>
</g>
<g>
</g>
<g>
</g>
<g>
</g>
<g>
</g>
<g>
</g>
<g>
</g>
<g>
</g>
<g>
</g>
<g>
</g>
<g>
</g>
<g>
</g>
<g>
</g>
<g>
</g>
<g>
</g>
</svg>
