<?xml version="1.0" encoding="utf-8"?><svg version="1.1" id="Layer_1" xmlns="http://www.w3.org/2000/svg" xmlns:xlink="http://www.w3.org/1999/xlink" x="0px" y="0px" viewBox="0 0 122.879 102.914" enable-background="new 0 0 122.879 102.914" xml:space="preserve"><g><path fill-rule="evenodd" clip-rule="evenodd" d="M11.511,102.895V58.897c-2.339,0.9-4.529,0.92-6.349,0.3 c-1.42-0.479-2.62-1.34-3.5-2.449s-1.44-2.46-1.609-3.95c-0.26-2.31,0.43-4.919,2.399-7.37l0,0c0.1-0.12,0.21-0.24,0.34-0.34 L59.847,0.552c0.74-0.679,1.88-0.75,2.701-0.11l57.185,44.457l0,0c0.09,0.07,0.17,0.14,0.249,0.23 c2.65,2.85,3.311,6.01,2.671,8.679c-0.32,1.32-0.95,2.501-1.82,3.48c-0.869,0.979-1.979,1.74-3.24,2.19 c-2,0.719-4.379,0.699-6.789-0.44v43.736h-5.599V56.578c0-1.011-39.228-32.018-43.557-35.387 c-4.59,3.489-44.536,34.248-44.536,35.547v46.176L11.511,102.895L11.511,102.895L11.511,102.895z M40.859,92.984 c1.785,2.776,3.569,5.355,5.354,7.734l-0.111,0.819c-2.529,0.768-5.021,1.228-7.475,1.376l-0.706-0.596l-0.446-0.93 c-0.199-0.396-0.595-1.233-1.19-2.51c-0.596-1.277-1.117-2.474-1.562-3.589h-2.492l0.261,7.177h-7.475l0.372-7.064l-0.372-16.995 l11.417-0.037c2.702,0,4.785,0.639,6.247,1.915c1.463,1.276,2.194,3.118,2.194,5.522c0,1.413-0.353,2.739-1.06,3.979 C43.108,91.025,42.123,92.092,40.859,92.984L40.859,92.984z M37.028,86.551c0-0.991-0.254-1.729-0.762-2.212 c-0.508-0.484-1.332-0.751-2.473-0.8l-1.338,0.111l-0.148,6.21l2.714,0.148c0.694-0.321,1.203-0.756,1.525-1.301 C36.867,88.162,37.028,87.443,37.028,86.551L37.028,86.551z M62.004,95.178l-9.222,0.075c0.224,0.867,0.645,1.507,1.265,1.915 c0.62,0.409,1.475,0.613,2.566,0.613c1.214,0,2.987-0.31,5.317-0.93l0.521,0.372l-1.115,4.909c-1.958,0.521-3.78,0.781-5.466,0.781 c-3.075,0-5.473-0.819-7.196-2.455c-1.723-1.637-2.585-3.893-2.585-6.768c0-2.852,0.818-5.095,2.455-6.73 c1.637-1.637,3.879-2.455,6.731-2.455c2.454,0,4.357,0.645,5.708,1.934s2.027,3.087,2.027,5.392c0,0.745-0.074,1.551-0.224,2.418 L62.004,95.178L62.004,95.178z M56.873,91.088c0-1.314-0.558-1.971-1.674-1.971c-1.363,0-2.193,0.88-2.491,2.641l4.091-0.149 L56.873,91.088L56.873,91.088z M75.602,102.467l0.372-9.816c0-1.513-0.583-2.269-1.748-2.269c-0.57,0-1.153,0.173-1.748,0.521 v3.756l0.298,7.809h-7.252l0.335-7.064l-0.261-10.078l6.88-0.484v2.604h0.26c1.29-1.289,2.74-2.206,4.352-2.752 c1.859,0,3.278,0.422,4.258,1.265c0.979,0.843,1.443,2.058,1.395,3.645l-0.149,5.058l0.261,7.809H75.602L75.602,102.467z M95.111,97.187c0.645,0,1.389-0.148,2.23-0.446l0.446,0.558l-0.669,4.017c-0.521,0.322-1.141,0.613-1.858,0.874 c-0.72,0.261-1.414,0.44-2.083,0.539c-1.959,0-3.496-0.446-4.611-1.339c-1.116-0.893-1.673-2.082-1.673-3.569l0.223-3.868 l-0.038-4.647h-2.305l-0.187-0.372l0.298-3.831h2.193l-0.036-3.16l6.73-1.785l0.446,0.409l-0.186,4.536h3.645l0.185,0.372 l-0.297,3.831h-3.681l-0.224,6.284c0,0.595,0.105,1.01,0.315,1.246C94.188,97.069,94.565,97.187,95.111,97.187L95.111,97.187z M62.769,39.677v12.552h11.26v-0.035c0-3.46-1.416-6.607-3.696-8.889C68.343,41.317,65.699,39.985,62.769,39.677L62.769,39.677 L62.769,39.677z M62.769,54.88v7.793h11.26V54.88H62.769L62.769,54.88L62.769,54.88z M60.118,62.665V54.88H48.856v7.793h11.261 V62.665L60.118,62.665z M60.118,52.229V39.677c-2.937,0.314-5.574,1.64-7.563,3.628c-2.28,2.282-3.698,5.429-3.698,8.889v0.035 H60.118L60.118,52.229L60.118,52.229z M61.443,36.957c4.193,0,8.002,1.716,10.757,4.472c2.764,2.763,4.473,6.572,4.473,10.757 V65.31H46.206V52.187c0-4.193,1.717-8.002,4.472-10.757C53.441,38.673,57.25,36.957,61.443,36.957L61.443,36.957L61.443,36.957z M93.754,3.552l17.169,0.7V27.44l-17.169-11.33V3.552L93.754,3.552L93.754,3.552L93.754,3.552z"/></g></svg>