<?xml version="1.0" encoding="iso-8859-1"?>
<!-- Generator: Adobe Illustrator 19.0.0, SVG Export Plug-In . SVG Version: 6.00 Build 0)  -->
<svg version="1.1" id="Capa_1" xmlns="http://www.w3.org/2000/svg" xmlns:xlink="http://www.w3.org/1999/xlink" x="0px" y="0px"
	 viewBox="0 0 512 512" style="enable-background:new 0 0 512 512;" xml:space="preserve">
<g>
	<g>
		<path d="M511.428,198.408c-3.756-25.919-26.461-45.493-52.828-45.53h-0.144c-1.273,0.002-2.544,0.053-3.81,0.153v-32.169
			c0-23.611-19.209-42.82-42.821-42.82H288.813c-13.164,0-24.96,5.972-32.821,15.348c-7.861-9.376-19.657-15.348-32.821-15.348
			H100.175c-23.612,0-42.821,19.209-42.821,42.82v32.17c-1.27-0.1-2.546-0.152-3.825-0.154h-0.143
			c-26.352,0.037-49.058,19.611-52.813,45.53c-1.997,13.784,1.276,27.556,9.219,38.778c6.142,8.68,14.613,15.252,24.363,19.02v122.7
			c0,5.522,4.477,10,10,10h13.022v35.051c0,5.522,4.477,10,10,10h27.758c4.01,0,7.631-2.395,9.202-6.084l16.582-38.967h270.562
			l16.582,38.967c1.57,3.69,5.192,6.084,9.202,6.084h27.758c5.523,0,10-4.478,10-10v-35.051h13.022c5.523,0,10-4.478,10-10v-122.7
			c9.75-3.768,18.222-10.34,24.363-19.02C510.152,225.964,513.426,212.192,511.428,198.408z M288.813,98.041h123.012
			c12.584,0,22.821,10.237,22.821,22.82v38.129c-0.001,0.001-0.003,0.002-0.004,0.002c-0.163,0.09-0.327,0.18-0.489,0.271
			c-15.543,8.748-25.198,25.554-25.198,43.857v15.811c-17.395-6.199-39.678-9.633-63.629-9.633c-30.007,0-60.24,5.668-79.334,16.697
			V120.862h-0.001C265.991,108.278,276.228,98.041,288.813,98.041z M345.325,229.301c24.874,0,48.086,4.122,63.629,11.165v13.45
			H265.991C266.066,245.54,294.063,229.301,345.325,229.301z M408.955,273.916v32.732H103.046v-32.732H408.955z M103.046,253.916
			v-13.457c15.543-7.039,38.748-11.158,63.612-11.158c51.263,0,79.26,16.239,79.335,24.615H103.046z M77.353,120.862
			c0-12.583,10.238-22.82,22.821-22.82H223.17c12.584,0,22.821,10.237,22.821,22.821v105.134
			c-19.095-11.029-49.327-16.697-79.335-16.697c-23.941,0-46.218,3.432-63.612,9.628v-15.806c0-3.432-0.34-6.811-0.994-10.095
			c-0.055-0.274-0.111-0.546-0.17-0.819c-0.235-1.089-0.506-2.167-0.81-3.232c-0.076-0.266-0.154-0.532-0.234-0.797
			c-0.255-0.842-0.532-1.676-0.829-2.5c-0.11-0.306-0.224-0.611-0.34-0.915c-0.132-0.345-0.267-0.688-0.406-1.03
			c-0.112-0.276-0.227-0.55-0.344-0.823c-0.101-0.237-0.204-0.472-0.309-0.707c-0.255-0.572-0.52-1.138-0.795-1.699
			c-0.222-0.453-0.451-0.902-0.687-1.347c-0.102-0.194-0.206-0.387-0.311-0.579c-0.632-1.158-1.308-2.29-2.028-3.393
			c-0.006-0.009-0.012-0.019-0.018-0.028c-4.253-6.509-10.006-11.999-16.924-15.893c-0.087-0.049-0.175-0.097-0.263-0.146
			c-0.038-0.021-0.075-0.042-0.113-0.063c-0.038-0.021-0.077-0.043-0.116-0.064V120.862z M88.323,413.958H77.176v-25.051h21.806
			L88.323,413.958z M434.823,413.958h-11.146l-10.66-25.051h21.806V413.958z M465.713,239.03c-4.593,1.002-7.868,5.068-7.868,9.77
			v120.108H54.154V357.88h330.68c5.523,0,10-4.478,10-10c0-5.522-4.477-10-10-10H54.154v-89.079c0-4.701-3.274-8.768-7.868-9.77
			c-17.348-3.787-28.492-20.017-25.921-37.752c2.343-16.167,16.551-28.376,33.035-28.399h0.114c3.508,0.005,6.893,0.603,10.111,1.78
			c0.075,0.03,0.15,0.06,0.226,0.088c1.065,0.399,2.116,0.863,3.137,1.385c0.019,0.01,0.038,0.019,0.057,0.029
			c0.075,0.038,0.149,0.077,0.224,0.116c0.1,0.053,0.2,0.106,0.299,0.159c0.036,0.02,0.072,0.039,0.108,0.059
			c0.121,0.066,0.241,0.132,0.362,0.2c9.257,5.21,15.008,15.337,15.008,26.428v113.526c0,5.522,4.477,10,10,10h325.909
			c5.523,0,10-4.478,10-10V203.122c0-1.386,0.09-2.758,0.265-4.106c0.022-0.169,0.045-0.337,0.07-0.505
			c0.049-0.336,0.104-0.67,0.163-1.003c0.015-0.083,0.03-0.166,0.046-0.249c0.031-0.166,0.064-0.331,0.097-0.496
			c0.084-0.413,0.177-0.823,0.277-1.23c0.04-0.163,0.082-0.325,0.124-0.487c0.021-0.081,0.043-0.162,0.065-0.242
			c0.103-0.378,0.213-0.754,0.33-1.127c0.014-0.044,0.028-0.088,0.042-0.132c1.966-6.173,5.806-11.555,11.018-15.259
			c0.089-0.063,0.179-0.126,0.269-0.188c0.105-0.073,0.211-0.145,0.318-0.217c0.622-0.419,1.263-0.815,1.922-1.186
			c0.016-0.009,0.032-0.018,0.047-0.026c0.095-0.053,0.19-0.105,0.285-0.157c0.056-0.03,0.111-0.061,0.167-0.091
			c0.022-0.012,0.045-0.024,0.067-0.036c1.172-0.626,2.387-1.176,3.622-1.638c0.079-0.03,0.158-0.061,0.236-0.092
			c3.214-1.174,6.592-1.771,10.086-1.776h0.115c16.498,0.023,30.706,12.232,33.049,28.399
			C494.206,219.012,483.061,235.243,465.713,239.03z"/>
	</g>
</g>
<g>
	<g>
		<path d="M431.771,345.92c-0.13-0.629-0.32-1.259-0.57-1.87c-0.25-0.6-0.56-1.18-0.92-1.72c-0.36-0.55-0.78-1.061-1.24-1.521
			c-0.46-0.46-0.98-0.88-1.52-1.25c-0.54-0.359-1.13-0.67-1.73-0.92c-0.6-0.25-1.23-0.439-1.87-0.57c-1.29-0.26-2.62-0.26-3.91,0
			c-0.64,0.131-1.27,0.32-1.87,0.57c-0.6,0.25-1.18,0.561-1.73,0.92c-0.54,0.37-1.06,0.79-1.52,1.25
			c-0.46,0.46-0.87,0.971-1.24,1.521c-0.36,0.54-0.67,1.12-0.92,1.72c-0.25,0.61-0.44,1.24-0.57,1.87
			c-0.13,0.649-0.19,1.31-0.19,1.96c0,0.65,0.06,1.31,0.19,1.95c0.13,0.64,0.32,1.27,0.57,1.87c0.25,0.609,0.56,1.189,0.92,1.729
			c0.37,0.55,0.79,1.061,1.25,1.521c0.46,0.46,0.97,0.88,1.52,1.239c0.54,0.36,1.12,0.67,1.72,0.92c0.6,0.25,1.23,0.44,1.87,0.57
			c0.65,0.13,1.3,0.2,1.96,0.2c0.65,0,1.3-0.07,1.95-0.2c0.64-0.13,1.27-0.32,1.87-0.57c0.6-0.25,1.19-0.56,1.73-0.92
			c0.54-0.359,1.06-0.779,1.52-1.239c0.46-0.46,0.88-0.971,1.24-1.521c0.36-0.54,0.67-1.12,0.92-1.729
			c0.25-0.601,0.44-1.23,0.57-1.87c0.13-0.641,0.2-1.3,0.2-1.95C431.971,347.23,431.901,346.569,431.771,345.92z"/>
	</g>
</g>
<g>
</g>
<g>
</g>
<g>
</g>
<g>
</g>
<g>
</g>
<g>
</g>
<g>
</g>
<g>
</g>
<g>
</g>
<g>
</g>
<g>
</g>
<g>
</g>
<g>
</g>
<g>
</g>
<g>
</g>
</svg>
