<svg xmlns="http://www.w3.org/2000/svg" viewBox="0 0 430 430" width="150" height="150">
	<style>
		tspan { white-space:pre }
		.shp0 { fill: #000000 } 
	</style>
	<g id="Layer">
		<path id="Layer" fill-rule="evenodd" class="shp0" d="M429.74 0L429.74 102.9L145.26 102.9L145.26 96.84C145.26 70.14 123.54 48.42 96.84 48.42C70.14 48.42 48.42 70.14 48.42 96.84C48.42 123.54 70.14 145.26 96.84 145.26L102.89 145.26L102.89 429.74L0 429.74L0 0L429.74 0ZM417.63 90.79L417.63 12.11L12.11 12.11L12.11 417.63L90.79 417.63L90.79 368.58L70.11 368.58L70.11 356.48L90.79 356.48L90.79 336.3L70.11 336.3L70.11 324.19L90.79 324.19L90.79 305.66L43.38 305.66L43.38 293.55L90.79 293.55L90.79 274.38L70.11 274.38L70.11 262.28L90.79 262.28L90.79 242.1L70.11 242.1L70.11 230L90.79 230L90.79 211.84L43.38 211.84L43.38 199.74L90.79 199.74L90.79 157.07C60.25 154.02 36.32 128.18 36.32 96.84C36.32 63.47 63.47 36.32 96.84 36.32C128.17 36.32 154.02 60.25 157.07 90.79L199.36 90.79L199.36 66.26L211.46 66.26L211.46 90.79L231.63 90.79L231.63 66.26L243.74 66.26L243.74 90.79L262.28 90.79L262.28 39.53L274.38 39.53L274.38 90.79L293.55 90.79L293.55 66.26L305.66 66.26L305.66 90.79L325.83 90.79L325.83 66.26L337.94 66.26L337.94 90.79L356.09 90.79L356.09 39.53L368.2 39.53L368.2 90.79L417.63 90.79Z" />
	</g>
	<g id="Layer">
	</g>
	<g id="Layer">
	</g>
	<g id="Layer">
	</g>
	<g id="Layer">
	</g>
	<g id="Layer">
	</g>
	<g id="Layer">
	</g>
	<g id="Layer">
	</g>
	<g id="Layer">
	</g>
	<g id="Layer">
	</g>
	<g id="Layer">
	</g>
	<g id="Layer">
	</g>
	<g id="Layer">
	</g>
	<g id="Layer">
	</g>
	<g id="Layer">
	</g>
	<g id="Layer">
	</g>
</svg>