<svg id="Layer_1" data-name="Layer 1" xmlns="http://www.w3.org/2000/svg" viewBox="0 0 122.88 113.83"><defs><style>.cls-1{fill-rule:evenodd;}</style></defs><title>home-repair</title><path class="cls-1" d="M97.65,8l15.71.64V29.83L97.65,19.46V8ZM112,110.64a1.89,1.89,0,0,1-1.9,1.89H86.41v-5.38h20.18V54.53a1.47,1.47,0,0,1,0-.36l-45-35L15.72,54.19a1.91,1.91,0,0,1,.06.48v52.48H39.94v5.38H12.28a1.89,1.89,0,0,1-1.89-1.89v-54a8.3,8.3,0,0,1-5.73.27A6.75,6.75,0,0,1,1.5,54.7,7,7,0,0,1,.05,51.13a9,9,0,0,1,2.17-6.65h0a1.77,1.77,0,0,1,.31-.3L60,.5A1.87,1.87,0,0,1,62.44.4L120.05,44h0a2.29,2.29,0,0,1,.23.21,8.49,8.49,0,0,1,2.4,7.84,7.24,7.24,0,0,1-4.56,5.12,7.9,7.9,0,0,1-6.13-.4v53.88Zm-58.93-6H71.76a9.14,9.14,0,0,0,.78-1.17l0-.06.88-1.46a22.47,22.47,0,0,0,1.86-3.7l0,0v0l0-.06v-.06l0,0v0l0-.08v0l0-.08V97.7l0,0V97.6h0l0-.06v0h0l0-.06,0,0h0l0-.06v-.06l0-.18V97l0-.06v-.05h0v-.11h0v-.11h0v-.11l0-.07v0h0l0-.06v0h0v-.12h0l0-.06v0h0V95.9h0v-.12h0v-.12h0v-.12h0V95.4h0v-.12h0v-.12h0V95h0V94.9h0v-.12h0v-.13h0v-.13L76,90.71c0-.06,0-.11,0-.17s0-.41,0-.89v-.12h0v-.11h0v-.46h0v-.12h0v-.12h0v-.12h0V88h0v-.12h0V87.7h0v-.12h0V87h0v-.11h0v-.11h0v-.11h0v-.33l0-.22h0l0-.1h0l0,0v-.05h0l0-.1h0v-.11a2.44,2.44,0,0,0-1.93-2H72.32l0,.94h0v0h0v0h0v0h0v0h0v0h0v0h0v0h0v0h0v0h0v0h0v0h0v0h0v0h0v0h0v0h0v0h0v0h0v0h0v0h0v0h0v0h0v0h0v0h0v0h0v0h0v0h0v0h0v0h0v0h0v0h0v0h0v0h0v0h0v0h0v0h0v0c0,.62-.08,1.23-.08,1.8a1.12,1.12,0,0,1-2.24,0c0-.57,0-1.24.09-1.94v-.11h0v-.1h0v-.11h0v-.1h0v-.11h0V85h0v-.11h0v-.09h0v-.12h0v-.1h0v-.11h0v-.09h0v-.12h0v-.22h0v-.22h0v-.11h0c0-1.69-.3-3.15-1.66-3.4H67l-.24,0c0,.63,0,1.27,0,1.91v.69c0,.62-.07,1.22-.07,1.79a1.12,1.12,0,0,1-2.24,0c0-.57,0-1.24.09-1.93v-.11h0v-.09h0v-.11h0v-.1h0v-.11h0V82h0v-.1h0v-.1h0v-.11h0v-.12h0v-.1h0v-.1h0v-.11h0v-.05c.06-1.89-.15-3.64-1.65-3.92H61.34a1.36,1.36,0,0,1-.29,0V81.5a1.12,1.12,0,0,1-2.24,0V76c0-1.54-1.53-2.21-3-2.21a2.54,2.54,0,0,0-1.16.28,3.27,3.27,0,0,0-1.5,2h0v.15h0v.07h0v0h0v.08h0v.08h0v.08h0v.07h0v.06h0v.08h0V77h0v.06h0v.08h0v.08h0v.09h0v.08h0v.16h0v.09h0v.09h0v.08h0v.07h0V90.29a1.12,1.12,0,0,1-2.24,0V88.22h0l-.17-.11-2.16-1.75L45.44,84a4.19,4.19,0,0,0-1-.62h-.74a1.82,1.82,0,0,0-1,0,1,1,0,0,0-.52.54h-.07A3.67,3.67,0,0,0,42,85.26a5.84,5.84,0,0,0,.54,1.94A12.88,12.88,0,0,0,44,89.59a.41.41,0,0,1,.07.11l8.47,12.6a1.1,1.1,0,0,1,.19.51h0a11.05,11.05,0,0,0,.34,1.81Zm9.79-66.93V50.35H74.71v0a11.88,11.88,0,0,0-3.9-8.79,13.23,13.23,0,0,0-8-3.83Zm0,15.45v7.51H74.71V53.14Zm-2.79,7.5v-7.5H48.17v7.51H60.05Zm0-10.29V37.69a13.25,13.25,0,0,0-8,3.83,11.92,11.92,0,0,0-3.9,8.79v0Zm1.39-15.53a16,16,0,0,1,11.34,4.72A14.66,14.66,0,0,1,77.5,50.31V63.43H45.38V50.31a14.7,14.7,0,0,1,4.71-10.77,16,16,0,0,1,11.35-4.72Zm13.69,69.87a1.66,1.66,0,0,1,1.21,1.6v5.87a1.67,1.67,0,0,1-1.67,1.67H50.56a1.68,1.68,0,0,1-1.67-1.67v-5.87a1.68,1.68,0,0,1,1.64-1.67v0L42.22,91l0,0a14.67,14.67,0,0,1-1.67-2.83,7.91,7.91,0,0,1-.72-2.7,6.13,6.13,0,0,1,0-1.05c-3.17.66-6.44.73-9.62-2.52A11.9,11.9,0,0,1,27.13,73c8.13,9.44,18-2.23,6-8.3C39,62,44.42,64.54,47.33,69.88c1.38,2.52,2.19,3.85,3.24,4.74a5.3,5.3,0,0,0,.6.46,5.41,5.41,0,0,1,2.5-3,4.76,4.76,0,0,1,2.18-.52c2.12,0,4.76,1.26,5.2,3.43h0a1,1,0,0,1,.3,0h1.54a1.07,1.07,0,0,1,.25,0,3.73,3.73,0,0,1,3.34,3.06A1,1,0,0,1,67,78h1.54a1,1,0,0,1,.25,0,3.81,3.81,0,0,1,3.42,3.42h1.71a1,1,0,0,1,.25,0c2.53.39,3.53,2,3.92,4C82.67,84.77,87.76,82,92.7,87a11.9,11.9,0,0,1,3,8.83c-8.13-9.44-18,2.23-6,8.3-5,2.36-9.73.78-12.81-3.11a20.46,20.46,0,0,1-1.56,3.28l-.22.36ZM50.67,84.24c-.45-.18-.8-.33-1.06-.42a15.39,15.39,0,0,0-1.46-.51l1.6,1.32.92.74V84.24Z"/></svg>